<svg width="40" height="40" viewBox="0 0 40 40" fill="none" xmlns="http://www.w3.org/2000/svg">
<path d="M20 0C16.0444 0 12.1776 1.17298 8.8886 3.37061C5.59962 5.56824 3.03617 8.69181 1.52242 12.3463C0.00866568 16.0009 -0.387401 20.0222 0.384303 23.9018C1.15601 27.7814 3.06082 31.3451 5.85787 34.1421C8.65492 36.9392 12.2186 38.844 16.0982 39.6157C19.9778 40.3874 23.9992 39.9913 27.6537 38.4776C31.3082 36.9638 34.4318 34.4004 36.6294 31.1114C38.827 27.8224 40 23.9556 40 20C39.9939 14.6975 37.8849 9.61398 34.1354 5.86456C30.386 2.11515 25.3025 0.00606621 20 0ZM30.414 15.2266L18.039 27.6016C17.8533 27.7873 17.6329 27.9347 17.3903 28.0352C17.1476 28.1358 16.8876 28.1875 16.625 28.1875C16.3623 28.1875 16.1023 28.1358 15.8596 28.0352C15.617 27.9347 15.3966 27.7873 15.2109 27.6016L9.58601 21.9766C9.21487 21.6007 9.00749 21.0933 9.00914 20.5651C9.01079 20.037 9.22134 19.5309 9.59482 19.1574C9.9683 18.7839 10.4744 18.5733 11.0026 18.5716C11.5308 18.57 12.0382 18.7773 12.414 19.1484L16.625 23.3594L27.586 12.3984C27.9619 12.0273 28.4693 11.82 28.9974 11.8216C29.5256 11.8233 30.0317 12.0339 30.4052 12.4074C30.7787 12.7809 30.9892 13.287 30.9909 13.8151C30.9925 14.3433 30.7852 14.8507 30.414 15.2266Z" fill="#42CA88"/>
</svg>
