<svg width="1000" height="213" viewBox="0 0 1000 213" fill="none" xmlns="http://www.w3.org/2000/svg">
<rect width="1000" height="213" fill="white"/>
<path fill-rule="evenodd" clip-rule="evenodd" d="M603.621 201.027C605.471 201.081 607.312 200.735 609.027 200.012C610.742 199.289 612.295 198.205 613.587 196.827C614.879 195.45 615.883 193.809 616.535 192.008C617.186 190.207 617.472 188.286 617.374 186.364C617.374 182.573 615.925 178.936 613.346 176.255C610.766 173.574 607.268 172.068 603.621 172.068C599.973 172.068 596.475 173.574 593.895 176.255C591.316 178.936 589.867 182.573 589.867 186.364C589.769 188.286 590.055 190.207 590.707 192.008C591.358 193.809 592.362 195.45 593.654 196.827C594.946 198.205 596.499 199.289 598.214 200.012C599.93 200.735 601.77 201.081 603.621 201.027ZM978.841 212.758C971.738 212.847 964.76 210.812 958.74 206.893H958.035L962.619 196.262L963.677 196.995C968.214 200.002 973.461 201.651 978.841 201.761C981.31 201.761 986.952 201.394 986.952 197.728C986.952 194.062 959.445 195.529 959.445 176.467C959.445 164.369 970.377 159.971 980.252 159.971C986.275 159.91 992.217 161.422 997.531 164.37L998.237 165.103L994.005 175.733L992.947 175C989.08 172.685 984.713 171.424 980.252 171.335C977.43 171.335 972.493 171.701 972.493 175.733C972.493 179.766 1000 177.933 1000 196.995C1000 208.359 988.715 212.758 978.841 212.758ZM921.711 197.362C921.711 189.663 894.205 195.162 894.205 176.1C894.205 164.003 905.137 159.604 915.011 159.604C920.923 159.541 926.751 161.056 931.938 164.003L932.996 164.736L928.764 175.367L927.707 174.634C923.84 172.318 919.473 171.057 915.011 170.968C912.19 170.968 906.9 171.335 906.9 175.367C906.9 179.399 934.76 177.566 934.76 196.628C934.76 208.359 923.475 212.758 913.601 212.758C906.49 212.912 899.495 210.871 893.499 206.893H892.794L897.379 196.262L898.437 196.995C902.95 200.056 908.212 201.71 913.601 201.761C916.069 201.394 921.711 201.027 921.711 197.362ZM844.128 175.367L833.901 201.394L829.67 212.025H815.916L838.133 160.337H850.123L872.34 212.025H858.587L850.829 192.229L844.128 175.367ZM772.54 200.661H796.168V212.025H759.492V160.337H772.54V200.661ZM717.174 199.195V185.265H729.164V206.159H728.812C723.055 210.453 716.148 212.761 709.063 212.758C693.899 212.758 681.909 202.127 681.909 186.364C681.909 170.601 694.252 159.604 709.063 159.604C712.937 159.418 716.804 160.109 720.396 161.628C723.988 163.147 727.22 165.458 729.87 168.402L730.575 169.135L721.759 177.566V176.833C720.306 175.11 718.516 173.728 716.51 172.78C714.503 171.832 712.325 171.339 710.121 171.335C708.196 171.229 706.27 171.545 704.47 172.263C702.67 172.981 701.035 174.085 699.672 175.502C698.308 176.919 697.247 178.619 696.556 180.49C695.865 182.361 695.561 184.363 695.662 186.364C695.561 188.318 695.856 190.271 696.529 192.098C697.201 193.925 698.237 195.584 699.568 196.968C700.898 198.351 702.495 199.428 704.252 200.127C706.01 200.826 707.889 201.133 709.768 201.027C712.331 200.941 714.849 200.317 717.174 199.195ZM603.621 212.758C588.809 212.758 576.466 202.127 576.466 186.364C576.466 170.601 588.809 159.604 603.621 159.604C618.432 159.604 630.422 170.235 630.422 186.364C630.422 202.494 618.432 212.758 603.621 212.758ZM526.037 172.068H510.873V160.337H554.249V172.068H539.085V212.025H526.037V172.068ZM463.618 212.758C449.512 212.758 441.049 203.96 441.049 189.297V160.337H454.097V188.93C454.097 195.895 456.213 201.027 463.618 201.027C471.024 201.027 473.14 195.895 473.14 188.93V160.337H486.188V189.297C486.188 203.96 478.077 212.758 463.618 212.758ZM389.914 175.367L379.335 201.394L375.103 212.025H361.702L383.919 160.337H395.909L418.126 212.025H404.373L396.262 192.229L389.914 175.367Z" fill="#002657"/>
<path d="M948.16 127.652C983.073 127.652 1000 110.136 1000 89.4023C1000 44.0027 929.117 59.7318 929.117 37.2107C929.117 29.3462 935.465 22.9116 952.392 22.9116C964.187 23.1931 975.716 26.5148 985.894 32.5635L994.71 11.1149C981.921 3.44172 967.248 -0.400647 952.392 0.0330487C917.832 0.0330487 901.258 17.5494 901.258 38.6406C901.258 84.3977 971.788 68.3112 971.788 91.5472C971.788 99.0542 965.088 104.774 948.513 104.774C934.142 104.672 920.133 100.188 908.311 91.9047L898.789 113.353C909.369 121.933 929.117 127.652 948.16 127.652ZM841.307 125.508H869.519V2.17793H841.307V125.508ZM642.059 97.9818C635.346 101.641 627.816 103.487 620.195 103.344C596.92 103.344 580.698 86.9 580.698 64.0215C580.698 41.143 596.92 24.3415 620.548 24.3415C626.466 24.2024 632.343 25.3784 637.765 27.7869C643.187 30.1954 648.023 33.7781 651.934 38.2831L669.919 21.4817C658.281 7.54007 640.296 0.0330487 619.137 0.0330487C580.346 0.0330487 552.134 26.4864 552.134 64.0215C552.134 101.557 580.346 127.652 618.432 127.652C636.123 127.886 653.424 122.374 667.803 111.923V61.8766H642.059V97.9818ZM492.888 125.508H521.1V2.17793H492.888V125.508ZM781.357 125.508L759.845 91.1897H731.985V125.508H703.773V68.3112H745.386L703.773 2.17793H756.318C789.115 2.17793 809.216 19.3368 809.216 46.8626C809.216 65.4514 801.81 78.3206 785.941 85.1126L811.685 125.508H781.357ZM748.56 25.4139L772.893 64.0215C775.502 62.0507 777.58 59.4461 778.936 56.4475C780.292 53.449 780.882 50.1528 780.651 46.8626C780.651 33.2784 772.188 25.4139 754.908 25.4139H748.56ZM400.846 125.508H429.058V25.4139H467.85V2.17793H361.702V25.4139H400.846V125.508Z" fill="#002657"/>
<path fill-rule="evenodd" clip-rule="evenodd" d="M30.8511 53.1915H153.723L92.2873 159.574L76.8617 132.979L107.713 79.7872H46.2766L30.8511 53.1915ZM0 0L15.4255 26.5957H261.17L276.596 0H0ZM245.745 53.1915L230.319 79.7872H199.734L122.872 212.766L107.713 186.17L184.308 53.1915H245.745Z" fill="#24C3EE"/>
</svg>
